<svg xmlns="http://www.w3.org/2000/svg" version="1.1" xmlns:xlink="http://www.w3.org/1999/xlink" xmlns:svgjs="http://svgjs.dev/svgjs" width="1500" height="1500" viewBox="0 0 1500 1500"><rect width="1500" height="1500" fill="#000000"></rect><g transform="matrix(0.6666666666666666,0,0,0.6666666666666666,249.39393939393938,435.99032258064517)"><svg viewBox="0 0 396 248" data-background-color="#89939e" preserveAspectRatio="xMidYMid meet" height="939" width="1500" xmlns="http://www.w3.org/2000/svg" xmlns:xlink="http://www.w3.org/1999/xlink"><g id="tight-bounds" transform="matrix(1,0,0,1,0.2400000000000091,0.4000000000000057)"><svg viewBox="0 0 395.52 247.2" height="247.2" width="395.52"><g><svg></svg></g><g><svg viewBox="0 0 395.52 247.2" height="247.2" width="395.52"><g transform="matrix(1,0,0,1,75.54432,50.5533532133676)"><svg viewBox="0 0 244.43135999999998 146.0932935732648" height="146.0932935732648" width="244.43135999999998"><g><svg viewBox="0 0 244.43135999999998 146.0932935732648" height="146.0932935732648" width="244.43135999999998"><g><svg viewBox="0 0 244.43135999999998 146.0932935732648" height="146.0932935732648" width="244.43135999999998"><g><svg viewBox="0 0 244.43135999999998 146.0932935732648" height="146.0932935732648" width="244.43135999999998"><g id="textblocktransform"><svg viewBox="0 0 244.43135999999998 146.0932935732648" height="146.0932935732648" width="244.43135999999998" id="textblock"><g><svg viewBox="0 0 244.43135999999998 146.0932935732648" height="146.0932935732648" width="244.43135999999998"><g transform="matrix(1,0,0,1,0,0)"><svg width="244.43135999999998" viewBox="0.63 -32.29 54.019999999999996 32.29" height="146.0932935732648" data-palette-color="#000000"><path d="M4.62 0L0.63 0 13.85-32.29 13.92-32.29 27.15 0 22.95 0 19.27-9.27 8.33-9.27 4.62 0ZM12.12-18.75L9.65-12.57 17.95-12.57 15.49-18.75Q15.03-19.93 14.62-21.08 14.2-22.22 13.78-23.82L13.78-23.82Q13.37-22.22 12.99-21.09 12.6-19.97 12.12-18.75L12.12-18.75ZM54.65 0L49.82 0 36.53-19.27 47.22-31.25 51.87-31.25 41.25-19.31 54.65 0ZM36.11 0L32.15 0 32.15-31.25 36.11-31.25 36.11 0Z" opacity="1" transform="matrix(1,0,0,1,0,0)" fill="#ffffff" class="wordmark-text-0" data-fill-palette-color="primary" id="text-0"></path></svg></g></svg></g></svg></g></svg></g></svg></g></svg></g></svg></g><g><path d="M245.816 0c68.262 0 123.6 55.338 123.6 123.6 0 68.262-55.338 123.6-123.6 123.6-32.635 0-62.315-12.648-84.407-33.309l9.974 0c20.227 16.693 46.159 26.721 74.433 26.722 64.624 0 117.013-52.388 117.012-117.013 0-64.624-52.388-117.013-117.012-117.013-28.274 0-54.206 10.028-74.433 26.722l-9.974 0c22.092-20.661 51.773-33.309 84.407-33.309z" fill="#ffffff" stroke="transparent" data-fill-palette-color="tertiary"></path></g></svg></g><defs></defs></svg><rect width="395.52" height="247.2" fill="none" stroke="none" visibility="hidden"></rect></g></svg></g></svg>